<?xml version="1.0" encoding="us-ascii" standalone="no"?><svg xmlns="http://www.w3.org/2000/svg" xmlns:xlink="http://www.w3.org/1999/xlink" contentStyleType="text/css" height="784px" preserveAspectRatio="none" style="width:1826px;height:784px;background:#FFFFFF;" version="1.1" viewBox="0 0 1826 784" width="1826px" zoomAndPan="magnify"><defs/><g><rect fill="#FFFFFF" height="582.2578" style="stroke:#181818;stroke-width:1.0;" width="10" x="173.5" y="112.4297"/><rect fill="#FFFFFF" height="553.125" style="stroke:#181818;stroke-width:1.0;" width="10" x="460.5" y="141.5625"/><rect fill="#FFFFFF" height="523.9922" style="stroke:#181818;stroke-width:1.0;" width="10" x="657.5" y="170.6953"/><rect fill="#FFFFFF" height="494.8594" style="stroke:#181818;stroke-width:1.0;" width="10" x="1172.5" y="199.8281"/><rect fill="#FFFFFF" height="225.9297" style="stroke:#181818;stroke-width:1.0;" width="10" x="1480.5" y="468.7578"/><rect fill="#FFFFFF" height="196.7969" style="stroke:#181818;stroke-width:1.0;" width="10" x="1625.5" y="497.8906"/><rect fill="#FFFFFF" height="138.5313" style="stroke:#181818;stroke-width:1.0;" width="10" x="1774.5" y="556.1563"/><line style="stroke:#181818;stroke-width:0.5;stroke-dasharray:5.0,5.0;" x1="44" x2="44" y1="81.2969" y2="703.6875"/><line style="stroke:#181818;stroke-width:0.5;stroke-dasharray:5.0,5.0;" x1="178" x2="178" y1="81.2969" y2="703.6875"/><line style="stroke:#181818;stroke-width:0.5;stroke-dasharray:5.0,5.0;" x1="465" x2="465" y1="81.2969" y2="703.6875"/><line style="stroke:#181818;stroke-width:0.5;stroke-dasharray:5.0,5.0;" x1="662" x2="662" y1="81.2969" y2="703.6875"/><line style="stroke:#181818;stroke-width:0.5;stroke-dasharray:5.0,5.0;" x1="1177" x2="1177" y1="81.2969" y2="703.6875"/><line style="stroke:#181818;stroke-width:0.5;stroke-dasharray:5.0,5.0;" x1="1485" x2="1485" y1="81.2969" y2="703.6875"/><line style="stroke:#181818;stroke-width:0.5;stroke-dasharray:5.0,5.0;" x1="1630" x2="1630" y1="81.2969" y2="703.6875"/><line style="stroke:#181818;stroke-width:0.5;stroke-dasharray:5.0,5.0;" x1="1779" x2="1779" y1="81.2969" y2="703.6875"/><text fill="#000000" font-family="sans-serif" font-size="14" lengthAdjust="spacing" textLength="73" x="5" y="77.9951">Utilisateur</text><ellipse cx="44.5" cy="13.5" fill="#E2E2F0" rx="8" ry="8" style="stroke:#181818;stroke-width:0.5;"/><path d="M44.5,21.5 L44.5,48.5 M31.5,29.5 L57.5,29.5 M44.5,48.5 L31.5,63.5 M44.5,48.5 L57.5,63.5 " fill="none" style="stroke:#181818;stroke-width:0.5;"/><text fill="#000000" font-family="sans-serif" font-size="14" lengthAdjust="spacing" textLength="73" x="5" y="715.6826">Utilisateur</text><ellipse cx="44.5" cy="727.4844" fill="#E2E2F0" rx="8" ry="8" style="stroke:#181818;stroke-width:0.5;"/><path d="M44.5,735.4844 L44.5,762.4844 M31.5,743.4844 L57.5,743.4844 M44.5,762.4844 L31.5,777.4844 M44.5,762.4844 L57.5,777.4844 " fill="none" style="stroke:#181818;stroke-width:0.5;"/><rect fill="#E2E2F0" height="30.2969" rx="2.5" ry="2.5" style="stroke:#181818;stroke-width:0.5;" width="47" x="155" y="50"/><text fill="#000000" font-family="sans-serif" font-size="14" lengthAdjust="spacing" textLength="33" x="162" y="69.9951">Main</text><rect fill="#E2E2F0" height="30.2969" rx="2.5" ry="2.5" style="stroke:#181818;stroke-width:0.5;" width="47" x="155" y="702.6875"/><text fill="#000000" font-family="sans-serif" font-size="14" lengthAdjust="spacing" textLength="33" x="162" y="722.6826">Main</text><rect fill="#E2E2F0" height="30.2969" rx="2.5" ry="2.5" style="stroke:#181818;stroke-width:0.5;" width="81" x="425" y="50"/><text fill="#000000" font-family="sans-serif" font-size="14" lengthAdjust="spacing" textLength="67" x="432" y="69.9951">Aquarium</text><rect fill="#E2E2F0" height="30.2969" rx="2.5" ry="2.5" style="stroke:#181818;stroke-width:0.5;" width="81" x="425" y="702.6875"/><text fill="#000000" font-family="sans-serif" font-size="14" lengthAdjust="spacing" textLength="67" x="432" y="722.6826">Aquarium</text><rect fill="#E2E2F0" height="30.2969" rx="2.5" ry="2.5" style="stroke:#181818;stroke-width:0.5;" width="55" x="635" y="50"/><text fill="#000000" font-family="sans-serif" font-size="14" lengthAdjust="spacing" textLength="41" x="642" y="69.9951">Milieu</text><rect fill="#E2E2F0" height="30.2969" rx="2.5" ry="2.5" style="stroke:#181818;stroke-width:0.5;" width="55" x="635" y="702.6875"/><text fill="#000000" font-family="sans-serif" font-size="14" lengthAdjust="spacing" textLength="41" x="642" y="722.6826">Milieu</text><rect fill="#E2E2F0" height="30.2969" rx="2.5" ry="2.5" style="stroke:#181818;stroke-width:0.5;" width="127" x="1114" y="50"/><text fill="#000000" font-family="sans-serif" font-size="14" lengthAdjust="spacing" textLength="113" x="1121" y="69.9951">BestioleFactory</text><rect fill="#E2E2F0" height="30.2969" rx="2.5" ry="2.5" style="stroke:#181818;stroke-width:0.5;" width="127" x="1114" y="702.6875"/><text fill="#000000" font-family="sans-serif" font-size="14" lengthAdjust="spacing" textLength="113" x="1121" y="722.6826">BestioleFactory</text><rect fill="#E2E2F0" height="30.2969" rx="2.5" ry="2.5" style="stroke:#181818;stroke-width:0.5;" width="73" x="1449" y="50"/><text fill="#000000" font-family="sans-serif" font-size="14" lengthAdjust="spacing" textLength="59" x="1456" y="69.9951">Bestiole</text><rect fill="#E2E2F0" height="30.2969" rx="2.5" ry="2.5" style="stroke:#181818;stroke-width:0.5;" width="73" x="1449" y="702.6875"/><text fill="#000000" font-family="sans-serif" font-size="14" lengthAdjust="spacing" textLength="59" x="1456" y="722.6826">Bestiole</text><rect fill="#E2E2F0" height="30.2969" rx="2.5" ry="2.5" style="stroke:#181818;stroke-width:0.5;" width="197" x="1532" y="50"/><text fill="#000000" font-family="sans-serif" font-size="14" lengthAdjust="spacing" textLength="183" x="1539" y="69.9951">ComportementKamikaze</text><rect fill="#E2E2F0" height="30.2969" rx="2.5" ry="2.5" style="stroke:#181818;stroke-width:0.5;" width="197" x="1532" y="702.6875"/><text fill="#000000" font-family="sans-serif" font-size="14" lengthAdjust="spacing" textLength="183" x="1539" y="722.6826">ComportementKamikaze</text><rect fill="#E2E2F0" height="30.2969" rx="2.5" ry="2.5" style="stroke:#181818;stroke-width:0.5;" width="81" x="1739" y="50"/><text fill="#000000" font-family="sans-serif" font-size="14" lengthAdjust="spacing" textLength="67" x="1746" y="69.9951">Carapace</text><rect fill="#E2E2F0" height="30.2969" rx="2.5" ry="2.5" style="stroke:#181818;stroke-width:0.5;" width="81" x="1739" y="702.6875"/><text fill="#000000" font-family="sans-serif" font-size="14" lengthAdjust="spacing" textLength="67" x="1746" y="722.6826">Carapace</text><rect fill="#FFFFFF" height="582.2578" style="stroke:#181818;stroke-width:1.0;" width="10" x="173.5" y="112.4297"/><rect fill="#FFFFFF" height="553.125" style="stroke:#181818;stroke-width:1.0;" width="10" x="460.5" y="141.5625"/><rect fill="#FFFFFF" height="523.9922" style="stroke:#181818;stroke-width:1.0;" width="10" x="657.5" y="170.6953"/><rect fill="#FFFFFF" height="494.8594" style="stroke:#181818;stroke-width:1.0;" width="10" x="1172.5" y="199.8281"/><rect fill="#FFFFFF" height="225.9297" style="stroke:#181818;stroke-width:1.0;" width="10" x="1480.5" y="468.7578"/><rect fill="#FFFFFF" height="196.7969" style="stroke:#181818;stroke-width:1.0;" width="10" x="1625.5" y="497.8906"/><rect fill="#FFFFFF" height="138.5313" style="stroke:#181818;stroke-width:1.0;" width="10" x="1774.5" y="556.1563"/><polygon fill="#181818" points="161.5,108.4297,171.5,112.4297,161.5,116.4297,165.5,112.4297" style="stroke:#181818;stroke-width:1.0;"/><line style="stroke:#181818;stroke-width:1.0;" x1="44.5" x2="167.5" y1="112.4297" y2="112.4297"/><text fill="#000000" font-family="sans-serif" font-size="13" lengthAdjust="spacing" textLength="110" x="51.5" y="107.3638">Run la simulation</text><polygon fill="#181818" points="448.5,137.5625,458.5,141.5625,448.5,145.5625,452.5,141.5625" style="stroke:#181818;stroke-width:1.0;"/><line style="stroke:#181818;stroke-width:1.0;" x1="183.5" x2="454.5" y1="141.5625" y2="141.5625"/><text fill="#000000" font-family="sans-serif" font-size="13" lengthAdjust="spacing" textLength="258" x="190.5" y="136.4966">Aquarium(int width, int height, int delay)</text><polygon fill="#181818" points="645.5,166.6953,655.5,170.6953,645.5,174.6953,649.5,170.6953" style="stroke:#181818;stroke-width:1.0;"/><line style="stroke:#181818;stroke-width:1.0;" x1="470.5" x2="651.5" y1="170.6953" y2="170.6953"/><text fill="#000000" font-family="sans-serif" font-size="13" lengthAdjust="spacing" textLength="168" x="477.5" y="165.6294">Milieu(int width, int height)</text><polygon fill="#181818" points="1160.5,195.8281,1170.5,199.8281,1160.5,203.8281,1164.5,199.8281" style="stroke:#181818;stroke-width:1.0;"/><line style="stroke:#181818;stroke-width:1.0;" x1="667.5" x2="1166.5" y1="199.8281" y2="199.8281"/><text fill="#000000" font-family="sans-serif" font-size="13" lengthAdjust="spacing" textLength="486" x="674.5" y="194.7622">BestioleFactory(milieu, p_kamikaze, p_peureuse, p_gregaire, p_prevoyante)</text><line style="stroke:#181818;stroke-width:1.0;" x1="1182.5" x2="1224.5" y1="228.9609" y2="228.9609"/><line style="stroke:#181818;stroke-width:1.0;" x1="1224.5" x2="1224.5" y1="228.9609" y2="241.9609"/><line style="stroke:#181818;stroke-width:1.0;" x1="1183.5" x2="1224.5" y1="241.9609" y2="241.9609"/><polygon fill="#181818" points="1193.5,237.9609,1183.5,241.9609,1193.5,245.9609,1189.5,241.9609" style="stroke:#181818;stroke-width:1.0;"/><text fill="#000000" font-family="sans-serif" font-size="13" lengthAdjust="spacing" textLength="284" x="1189.5" y="223.895">Initialise la r&#233;partition des types de bestioles</text><line style="stroke:#181818;stroke-width:1.0;" x1="667.5" x2="709.5" y1="271.0938" y2="271.0938"/><line style="stroke:#181818;stroke-width:1.0;" x1="709.5" x2="709.5" y1="271.0938" y2="284.0938"/><line style="stroke:#181818;stroke-width:1.0;" x1="668.5" x2="709.5" y1="284.0938" y2="284.0938"/><polygon fill="#181818" points="678.5,280.0938,668.5,284.0938,678.5,288.0938,674.5,284.0938" style="stroke:#181818;stroke-width:1.0;"/><text fill="#000000" font-family="sans-serif" font-size="13" lengthAdjust="spacing" textLength="151" x="674.5" y="266.0278">peupler(int nbBestioles)</text><polygon fill="#181818" points="1160.5,309.2266,1170.5,313.2266,1160.5,317.2266,1164.5,313.2266" style="stroke:#181818;stroke-width:1.0;"/><line style="stroke:#181818;stroke-width:1.0;" x1="667.5" x2="1166.5" y1="313.2266" y2="313.2266"/><text fill="#000000" font-family="sans-serif" font-size="13" lengthAdjust="spacing" textLength="84" x="674.5" y="308.1606">addBestiole()</text><line style="stroke:#181818;stroke-width:1.0;" x1="1182.5" x2="1224.5" y1="342.3594" y2="342.3594"/><line style="stroke:#181818;stroke-width:1.0;" x1="1224.5" x2="1224.5" y1="342.3594" y2="355.3594"/><line style="stroke:#181818;stroke-width:1.0;" x1="1183.5" x2="1224.5" y1="355.3594" y2="355.3594"/><polygon fill="#181818" points="1193.5,351.3594,1183.5,355.3594,1193.5,359.3594,1189.5,355.3594" style="stroke:#181818;stroke-width:1.0;"/><text fill="#000000" font-family="sans-serif" font-size="13" lengthAdjust="spacing" textLength="74" x="1189.5" y="337.2935">naissance()</text><line style="stroke:#181818;stroke-width:1.0;" x1="1182.5" x2="1224.5" y1="384.4922" y2="384.4922"/><line style="stroke:#181818;stroke-width:1.0;" x1="1224.5" x2="1224.5" y1="384.4922" y2="397.4922"/><line style="stroke:#181818;stroke-width:1.0;" x1="1183.5" x2="1224.5" y1="397.4922" y2="397.4922"/><polygon fill="#181818" points="1193.5,393.4922,1183.5,397.4922,1193.5,401.4922,1189.5,397.4922" style="stroke:#181818;stroke-width:1.0;"/><text fill="#000000" font-family="sans-serif" font-size="13" lengthAdjust="spacing" textLength="123" x="1189.5" y="379.4263">naissance(int type)</text><line style="stroke:#181818;stroke-width:1.0;" x1="1182.5" x2="1224.5" y1="426.625" y2="426.625"/><line style="stroke:#181818;stroke-width:1.0;" x1="1224.5" x2="1224.5" y1="426.625" y2="439.625"/><line style="stroke:#181818;stroke-width:1.0;" x1="1183.5" x2="1224.5" y1="439.625" y2="439.625"/><polygon fill="#181818" points="1193.5,435.625,1183.5,439.625,1193.5,443.625,1189.5,439.625" style="stroke:#181818;stroke-width:1.0;"/><text fill="#000000" font-family="sans-serif" font-size="13" lengthAdjust="spacing" textLength="207" x="1189.5" y="421.5591">Lit les probabilit&#233;s de d&#233;coration</text><polygon fill="#181818" points="1468.5,464.7578,1478.5,468.7578,1468.5,472.7578,1472.5,468.7578" style="stroke:#181818;stroke-width:1.0;"/><line style="stroke:#181818;stroke-width:1.0;" x1="1182.5" x2="1474.5" y1="468.7578" y2="468.7578"/><text fill="#000000" font-family="sans-serif" font-size="13" lengthAdjust="spacing" textLength="208" x="1189.5" y="463.6919">Bestiole(Milieu *_milieu, int type)</text><polygon fill="#181818" points="1613.5,493.8906,1623.5,497.8906,1613.5,501.8906,1617.5,497.8906" style="stroke:#181818;stroke-width:1.0;"/><line style="stroke:#181818;stroke-width:1.0;" x1="1490.5" x2="1619.5" y1="497.8906" y2="497.8906"/><text fill="#000000" font-family="sans-serif" font-size="13" lengthAdjust="spacing" textLength="85" x="1497.5" y="492.8247">getInstance()</text><polygon fill="#181818" points="1501.5,523.0234,1491.5,527.0234,1501.5,531.0234,1497.5,527.0234" style="stroke:#181818;stroke-width:1.0;"/><line style="stroke:#181818;stroke-width:1.0;stroke-dasharray:2.0,2.0;" x1="1495.5" x2="1624.5" y1="527.0234" y2="527.0234"/><text fill="#000000" font-family="sans-serif" font-size="13" lengthAdjust="spacing" textLength="101" x="1507.5" y="521.9575">IComportement</text><polygon fill="#181818" points="1762.5,552.1563,1772.5,556.1563,1762.5,560.1563,1766.5,556.1563" style="stroke:#181818;stroke-width:1.0;"/><line style="stroke:#181818;stroke-width:1.0;" x1="1490.5" x2="1768.5" y1="556.1563" y2="556.1563"/><text fill="#000000" font-family="sans-serif" font-size="13" lengthAdjust="spacing" textLength="136" x="1497.5" y="551.0903">Carapace(IBestiole b)</text><polygon fill="#181818" points="1501.5,581.2891,1491.5,585.2891,1501.5,589.2891,1497.5,585.2891" style="stroke:#181818;stroke-width:1.0;"/><line style="stroke:#181818;stroke-width:1.0;stroke-dasharray:2.0,2.0;" x1="1495.5" x2="1773.5" y1="585.2891" y2="585.2891"/><text fill="#000000" font-family="sans-serif" font-size="13" lengthAdjust="spacing" textLength="53" x="1507.5" y="580.2231">IBestiole</text><polygon fill="#181818" points="1193.5,610.4219,1183.5,614.4219,1193.5,618.4219,1189.5,614.4219" style="stroke:#181818;stroke-width:1.0;"/><line style="stroke:#181818;stroke-width:1.0;stroke-dasharray:2.0,2.0;" x1="1187.5" x2="1479.5" y1="614.4219" y2="614.4219"/><text fill="#000000" font-family="sans-serif" font-size="13" lengthAdjust="spacing" textLength="53" x="1199.5" y="609.356">IBestiole</text><polygon fill="#181818" points="678.5,639.5547,668.5,643.5547,678.5,647.5547,674.5,643.5547" style="stroke:#181818;stroke-width:1.0;"/><line style="stroke:#181818;stroke-width:1.0;stroke-dasharray:2.0,2.0;" x1="672.5" x2="1171.5" y1="643.5547" y2="643.5547"/><text fill="#000000" font-family="sans-serif" font-size="13" lengthAdjust="spacing" textLength="53" x="684.5" y="638.4888">IBestiole</text><line style="stroke:#181818;stroke-width:1.0;" x1="667.5" x2="709.5" y1="672.6875" y2="672.6875"/><line style="stroke:#181818;stroke-width:1.0;" x1="709.5" x2="709.5" y1="672.6875" y2="685.6875"/><line style="stroke:#181818;stroke-width:1.0;" x1="668.5" x2="709.5" y1="685.6875" y2="685.6875"/><polygon fill="#181818" points="678.5,681.6875,668.5,685.6875,678.5,689.6875,674.5,685.6875" style="stroke:#181818;stroke-width:1.0;"/><text fill="#000000" font-family="sans-serif" font-size="13" lengthAdjust="spacing" textLength="177" x="674.5" y="667.6216">ajout &#224; la liste des bestioles</text><!--SRC=[bLDBReCm4Drp2Yz9bLo0HQMsKYNKTbEfwsY04Pa6Z6iFgUXfkiqvk5Xj_X0KfHiyZ9_Vl7aUGyo55XzC6HbWBBMdG3F5f42oU0EIiyJ3LmcQodoEieUndAKUqJ0L6Jw3uwzMzsR9fo9NXMRCKV8Bv7I47_IyYIwnks_a1EAzb283OIWlCx1CqhD5w6HHhLxtSUXUQp14FjbAtvJmOIjSU41A3zp62MPGRKQgeTC-Q0GqdGRTkautuUYCQHTtVc5Bi4puUGFT2hK_TYQuMDd-iJHDd6fCWNIRrtWgAciVJeekhL_yhye89J61jHgTixe-DrVZlBM-6C6Lijy4HTGTD9EUUa-iI9MXRaoHKL_2RAwr3qdIv_pDJKeba34Wu__ZdIxNo6tdNec5LI-KBYA8R0TSdniBaleS5xgTkoj4uzNwNVzt-_voHoKNbpPGEgwrDn6853cKXZiF1eRL1xIM5BkPp72AcPS73GfYY-aZFnpsesdfRjlhWsM9bUvMf_02DnWxcRCHTJc3y5cKBEfVDyLscgqsDxx3rFu1]--></g></svg>