<?xml version="1.0" encoding="us-ascii" standalone="no"?><svg xmlns="http://www.w3.org/2000/svg" xmlns:xlink="http://www.w3.org/1999/xlink" contentStyleType="text/css" height="729px" preserveAspectRatio="none" style="width:801px;height:729px;background:#FFFFFF;" version="1.1" viewBox="0 0 801 729" width="801px" zoomAndPan="magnify"><defs/><g><rect fill="#FFFFFF" height="638.6563" style="stroke:#181818;stroke-width:1.0;" width="10" x="40.5" y="46.2969"/><rect fill="#FFFFFF" height="617.5234" style="stroke:#181818;stroke-width:1.0;" width="10" x="118.5" y="67.4297"/><rect fill="#FFFFFF" height="564.2578" style="stroke:#181818;stroke-width:1.0;" width="10" x="229.5" y="120.6953"/><rect fill="#FFFFFF" height="535.125" style="stroke:#181818;stroke-width:1.0;" width="10" x="336.5" y="149.8281"/><rect fill="#FFFFFF" height="505.9922" style="stroke:#181818;stroke-width:1.0;" width="10" x="681.5" y="178.9609"/><rect fill="none" height="133.6641" style="stroke:#000000;stroke-width:1.5;" width="709" x="86" y="82.4297"/><rect fill="none" height="175.7969" style="stroke:#000000;stroke-width:1.5;" width="302" x="86" y="230.0938"/><rect fill="none" height="59.2656" style="stroke:#000000;stroke-width:1.5;" width="105.5" x="86" y="419.8906"/><rect fill="none" height="81.3984" style="stroke:#000000;stroke-width:1.5;" width="570.5" x="86" y="535.2891"/><rect fill="none" height="46.2656" style="stroke:#000000;stroke-width:1.5;" width="302" x="86" y="630.6875"/><line style="stroke:#181818;stroke-width:0.5;stroke-dasharray:5.0,5.0;" x1="45" x2="45" y1="36.2969" y2="693.9531"/><line style="stroke:#181818;stroke-width:0.5;stroke-dasharray:5.0,5.0;" x1="123" x2="123" y1="36.2969" y2="693.9531"/><line style="stroke:#181818;stroke-width:0.5;stroke-dasharray:5.0,5.0;" x1="234" x2="234" y1="36.2969" y2="693.9531"/><line style="stroke:#181818;stroke-width:0.5;stroke-dasharray:5.0,5.0;" x1="341" x2="341" y1="36.2969" y2="693.9531"/><line style="stroke:#181818;stroke-width:0.5;stroke-dasharray:5.0,5.0;" x1="686" x2="686" y1="36.2969" y2="693.9531"/><rect fill="#E2E2F0" height="30.2969" rx="2.5" ry="2.5" style="stroke:#181818;stroke-width:0.5;" width="81" x="5" y="5"/><text fill="#000000" font-family="sans-serif" font-size="14" lengthAdjust="spacing" textLength="67" x="12" y="24.9951">Aquarium</text><rect fill="#E2E2F0" height="30.2969" rx="2.5" ry="2.5" style="stroke:#181818;stroke-width:0.5;" width="81" x="5" y="692.9531"/><text fill="#000000" font-family="sans-serif" font-size="14" lengthAdjust="spacing" textLength="67" x="12" y="712.9482">Aquarium</text><rect fill="#E2E2F0" height="30.2969" rx="2.5" ry="2.5" style="stroke:#181818;stroke-width:0.5;" width="55" x="96" y="5"/><text fill="#000000" font-family="sans-serif" font-size="14" lengthAdjust="spacing" textLength="41" x="103" y="24.9951">Milieu</text><rect fill="#E2E2F0" height="30.2969" rx="2.5" ry="2.5" style="stroke:#181818;stroke-width:0.5;" width="55" x="96" y="692.9531"/><text fill="#000000" font-family="sans-serif" font-size="14" lengthAdjust="spacing" textLength="41" x="103" y="712.9482">Milieu</text><rect fill="#E2E2F0" height="30.2969" rx="2.5" ry="2.5" style="stroke:#181818;stroke-width:0.5;" width="81" x="194" y="5"/><text fill="#000000" font-family="sans-serif" font-size="14" lengthAdjust="spacing" textLength="67" x="201" y="24.9951">Carapace</text><rect fill="#E2E2F0" height="30.2969" rx="2.5" ry="2.5" style="stroke:#181818;stroke-width:0.5;" width="81" x="194" y="692.9531"/><text fill="#000000" font-family="sans-serif" font-size="14" lengthAdjust="spacing" textLength="67" x="201" y="712.9482">Carapace</text><rect fill="#E2E2F0" height="30.2969" rx="2.5" ry="2.5" style="stroke:#181818;stroke-width:0.5;" width="73" x="305" y="5"/><text fill="#000000" font-family="sans-serif" font-size="14" lengthAdjust="spacing" textLength="59" x="312" y="24.9951">Bestiole</text><rect fill="#E2E2F0" height="30.2969" rx="2.5" ry="2.5" style="stroke:#181818;stroke-width:0.5;" width="73" x="305" y="692.9531"/><text fill="#000000" font-family="sans-serif" font-size="14" lengthAdjust="spacing" textLength="59" x="312" y="712.9482">Bestiole</text><rect fill="#E2E2F0" height="30.2969" rx="2.5" ry="2.5" style="stroke:#181818;stroke-width:0.5;" width="197" x="588" y="5"/><text fill="#000000" font-family="sans-serif" font-size="14" lengthAdjust="spacing" textLength="183" x="595" y="24.9951">ComportementKamikaze</text><rect fill="#E2E2F0" height="30.2969" rx="2.5" ry="2.5" style="stroke:#181818;stroke-width:0.5;" width="197" x="588" y="692.9531"/><text fill="#000000" font-family="sans-serif" font-size="14" lengthAdjust="spacing" textLength="183" x="595" y="712.9482">ComportementKamikaze</text><rect fill="#FFFFFF" height="638.6563" style="stroke:#181818;stroke-width:1.0;" width="10" x="40.5" y="46.2969"/><rect fill="#FFFFFF" height="617.5234" style="stroke:#181818;stroke-width:1.0;" width="10" x="118.5" y="67.4297"/><rect fill="#FFFFFF" height="564.2578" style="stroke:#181818;stroke-width:1.0;" width="10" x="229.5" y="120.6953"/><rect fill="#FFFFFF" height="535.125" style="stroke:#181818;stroke-width:1.0;" width="10" x="336.5" y="149.8281"/><rect fill="#FFFFFF" height="505.9922" style="stroke:#181818;stroke-width:1.0;" width="10" x="681.5" y="178.9609"/><polygon fill="#181818" points="106.5,63.4297,116.5,67.4297,106.5,71.4297,110.5,67.4297" style="stroke:#181818;stroke-width:1.0;"/><line style="stroke:#181818;stroke-width:1.0;" x1="50.5" x2="112.5" y1="67.4297" y2="67.4297"/><text fill="#000000" font-family="sans-serif" font-size="13" lengthAdjust="spacing" textLength="38" x="57.5" y="62.3638">step()</text><path d="M86,82.4297 L164,82.4297 L164,89.5625 L154,99.5625 L86,99.5625 L86,82.4297 " fill="#EEEEEE" style="stroke:#000000;stroke-width:1.5;"/><rect fill="none" height="133.6641" style="stroke:#000000;stroke-width:1.5;" width="709" x="86" y="82.4297"/><text fill="#000000" font-family="sans-serif" font-size="13" font-weight="bold" lengthAdjust="spacing" textLength="33" x="101" y="95.4966">loop</text><text fill="#000000" font-family="sans-serif" font-size="11" font-weight="bold" lengthAdjust="spacing" textLength="67" x="179" y="94.6401">[MAJ_POS]</text><polygon fill="#181818" points="217.5,116.6953,227.5,120.6953,217.5,124.6953,221.5,120.6953" style="stroke:#181818;stroke-width:1.0;"/><line style="stroke:#181818;stroke-width:1.0;" x1="128.5" x2="223.5" y1="120.6953" y2="120.6953"/><text fill="#000000" font-family="sans-serif" font-size="13" lengthAdjust="spacing" textLength="78" x="135.5" y="115.6294">updatePos()</text><polygon fill="#181818" points="324.5,145.8281,334.5,149.8281,324.5,153.8281,328.5,149.8281" style="stroke:#181818;stroke-width:1.0;"/><line style="stroke:#181818;stroke-width:1.0;" x1="239.5" x2="330.5" y1="149.8281" y2="149.8281"/><text fill="#000000" font-family="sans-serif" font-size="13" lengthAdjust="spacing" textLength="78" x="246.5" y="144.7622">updatePos()</text><polygon fill="#181818" points="669.5,174.9609,679.5,178.9609,669.5,182.9609,673.5,178.9609" style="stroke:#181818;stroke-width:1.0;"/><line style="stroke:#181818;stroke-width:1.0;" x1="346.5" x2="675.5" y1="178.9609" y2="178.9609"/><text fill="#000000" font-family="sans-serif" font-size="13" lengthAdjust="spacing" textLength="316" x="353.5" y="173.895">getDeplacement(int idBestiole, Milieu *monMilieu)</text><polygon fill="#181818" points="357.5,204.0938,347.5,208.0938,357.5,212.0938,353.5,208.0938" style="stroke:#181818;stroke-width:1.0;"/><line style="stroke:#181818;stroke-width:1.0;stroke-dasharray:2.0,2.0;" x1="351.5" x2="680.5" y1="208.0938" y2="208.0938"/><text fill="#000000" font-family="sans-serif" font-size="13" lengthAdjust="spacing" textLength="136" x="363.5" y="203.0278">double deltaX, deltaY</text><path d="M86,230.0938 L164,230.0938 L164,237.2266 L154,247.2266 L86,247.2266 L86,230.0938 " fill="#EEEEEE" style="stroke:#000000;stroke-width:1.5;"/><rect fill="none" height="175.7969" style="stroke:#000000;stroke-width:1.5;" width="302" x="86" y="230.0938"/><text fill="#000000" font-family="sans-serif" font-size="13" font-weight="bold" lengthAdjust="spacing" textLength="33" x="101" y="243.1606">loop</text><text fill="#000000" font-family="sans-serif" font-size="11" font-weight="bold" lengthAdjust="spacing" textLength="82" x="179" y="242.3042">[TUER_BEST]</text><line style="stroke:#181818;stroke-width:1.0;" x1="128.5" x2="170.5" y1="268.3594" y2="268.3594"/><line style="stroke:#181818;stroke-width:1.0;" x1="170.5" x2="170.5" y1="268.3594" y2="281.3594"/><line style="stroke:#181818;stroke-width:1.0;" x1="129.5" x2="170.5" y1="281.3594" y2="281.3594"/><polygon fill="#181818" points="139.5,277.3594,129.5,281.3594,139.5,285.3594,135.5,281.3594" style="stroke:#181818;stroke-width:1.0;"/><text fill="#000000" font-family="sans-serif" font-size="13" lengthAdjust="spacing" textLength="87" x="135.5" y="263.2935">getVaMourir()</text><polygon fill="#181818" points="324.5,306.4922,334.5,310.4922,324.5,314.4922,328.5,310.4922" style="stroke:#181818;stroke-width:1.0;"/><line style="stroke:#181818;stroke-width:1.0;" x1="128.5" x2="330.5" y1="310.4922" y2="310.4922"/><text fill="#000000" font-family="sans-serif" font-size="13" lengthAdjust="spacing" textLength="95" x="135.5" y="305.4263">getDistance(b)</text><polygon fill="#181818" points="324.5,335.625,334.5,339.625,324.5,343.625,328.5,339.625" style="stroke:#181818;stroke-width:1.0;"/><line style="stroke:#181818;stroke-width:1.0;" x1="128.5" x2="330.5" y1="339.625" y2="339.625"/><text fill="#000000" font-family="sans-serif" font-size="13" lengthAdjust="spacing" textLength="60" x="135.5" y="334.5591">collision()</text><polygon fill="#181818" points="324.5,364.7578,334.5,368.7578,324.5,372.7578,328.5,368.7578" style="stroke:#181818;stroke-width:1.0;"/><line style="stroke:#181818;stroke-width:1.0;" x1="128.5" x2="330.5" y1="368.7578" y2="368.7578"/><text fill="#000000" font-family="sans-serif" font-size="13" lengthAdjust="spacing" textLength="109" x="135.5" y="363.6919">getVieRestante()</text><polygon fill="#181818" points="139.5,393.8906,129.5,397.8906,139.5,401.8906,135.5,397.8906" style="stroke:#181818;stroke-width:1.0;"/><line style="stroke:#181818;stroke-width:1.0;stroke-dasharray:2.0,2.0;" x1="133.5" x2="335.5" y1="397.8906" y2="397.8906"/><text fill="#000000" font-family="sans-serif" font-size="13" lengthAdjust="spacing" textLength="27" x="145.5" y="392.8247">bool</text><path d="M86,419.8906 L164,419.8906 L164,427.0234 L154,437.0234 L86,437.0234 L86,419.8906 " fill="#EEEEEE" style="stroke:#000000;stroke-width:1.5;"/><rect fill="none" height="59.2656" style="stroke:#000000;stroke-width:1.5;" width="105.5" x="86" y="419.8906"/><text fill="#000000" font-family="sans-serif" font-size="13" font-weight="bold" lengthAdjust="spacing" textLength="33" x="101" y="432.9575">loop</text><line style="stroke:#181818;stroke-width:1.0;" x1="128.5" x2="170.5" y1="458.1563" y2="458.1563"/><line style="stroke:#181818;stroke-width:1.0;" x1="170.5" x2="170.5" y1="458.1563" y2="471.1563"/><line style="stroke:#181818;stroke-width:1.0;" x1="129.5" x2="170.5" y1="471.1563" y2="471.1563"/><polygon fill="#181818" points="139.5,467.1563,129.5,471.1563,139.5,475.1563,135.5,471.1563" style="stroke:#181818;stroke-width:1.0;"/><text fill="#000000" font-family="sans-serif" font-size="13" lengthAdjust="spacing" textLength="44" x="135.5" y="453.0903">tuer(it)</text><line style="stroke:#181818;stroke-width:1.0;" x1="128.5" x2="170.5" y1="507.2891" y2="507.2891"/><line style="stroke:#181818;stroke-width:1.0;" x1="170.5" x2="170.5" y1="507.2891" y2="520.2891"/><line style="stroke:#181818;stroke-width:1.0;" x1="129.5" x2="170.5" y1="520.2891" y2="520.2891"/><polygon fill="#181818" points="139.5,516.2891,129.5,520.2891,139.5,524.2891,135.5,520.2891" style="stroke:#181818;stroke-width:1.0;"/><text fill="#000000" font-family="sans-serif" font-size="13" lengthAdjust="spacing" textLength="84" x="135.5" y="502.2231">addBestiole()</text><path d="M231,494.6563 L231,519.6563 L548,519.6563 L548,504.6563 L538,494.6563 L231,494.6563 " fill="#FEFFDD" style="stroke:#181818;stroke-width:0.5;"/><path d="M538,494.6563 L538,504.6563 L548,504.6563 L538,494.6563 " fill="#FEFFDD" style="stroke:#181818;stroke-width:0.5;"/><text fill="#000000" font-family="sans-serif" font-size="13" lengthAdjust="spacing" textLength="296" x="237" y="511.7231">Appel&#233; al&#233;atoirement (naissance spontann&#233;e)</text><path d="M86,535.2891 L164,535.2891 L164,542.4219 L154,552.4219 L86,552.4219 L86,535.2891 " fill="#EEEEEE" style="stroke:#000000;stroke-width:1.5;"/><rect fill="none" height="81.3984" style="stroke:#000000;stroke-width:1.5;" width="570.5" x="86" y="535.2891"/><text fill="#000000" font-family="sans-serif" font-size="13" font-weight="bold" lengthAdjust="spacing" textLength="33" x="101" y="548.356">loop</text><text fill="#000000" font-family="sans-serif" font-size="11" font-weight="bold" lengthAdjust="spacing" textLength="52" x="179" y="547.4995">[CLONE]</text><polygon fill="#181818" points="324.5,572.5547,334.5,576.5547,324.5,580.5547,328.5,576.5547" style="stroke:#181818;stroke-width:1.0;"/><line style="stroke:#181818;stroke-width:1.0;" x1="128.5" x2="330.5" y1="576.5547" y2="576.5547"/><text fill="#000000" font-family="sans-serif" font-size="13" lengthAdjust="spacing" textLength="44" x="135.5" y="571.4888">clone()</text><path d="M351,557.4219 L351,582.4219 L646,582.4219 L646,567.4219 L636,557.4219 L351,557.4219 " fill="#FEFFDD" style="stroke:#181818;stroke-width:0.5;"/><path d="M636,557.4219 L636,567.4219 L646,567.4219 L636,557.4219 " fill="#FEFFDD" style="stroke:#181818;stroke-width:0.5;"/><text fill="#000000" font-family="sans-serif" font-size="13" lengthAdjust="spacing" textLength="274" x="357" y="574.4888">Appel&#233; al&#233;atoirement (clonage spontann&#233;)</text><polygon fill="#181818" points="139.5,604.6875,129.5,608.6875,139.5,612.6875,135.5,608.6875" style="stroke:#181818;stroke-width:1.0;"/><line style="stroke:#181818;stroke-width:1.0;stroke-dasharray:2.0,2.0;" x1="133.5" x2="335.5" y1="608.6875" y2="608.6875"/><text fill="#000000" font-family="sans-serif" font-size="13" lengthAdjust="spacing" textLength="177" x="145.5" y="603.6216">ajout &#224; la liste des Bestioles</text><path d="M86,630.6875 L164,630.6875 L164,637.8203 L154,647.8203 L86,647.8203 L86,630.6875 " fill="#EEEEEE" style="stroke:#000000;stroke-width:1.5;"/><rect fill="none" height="46.2656" style="stroke:#000000;stroke-width:1.5;" width="302" x="86" y="630.6875"/><text fill="#000000" font-family="sans-serif" font-size="13" font-weight="bold" lengthAdjust="spacing" textLength="33" x="101" y="643.7544">loop</text><text fill="#000000" font-family="sans-serif" font-size="11" font-weight="bold" lengthAdjust="spacing" textLength="48" x="179" y="642.8979">[DRAW]</text><polygon fill="#181818" points="324.5,664.9531,334.5,668.9531,324.5,672.9531,328.5,668.9531" style="stroke:#181818;stroke-width:1.0;"/><line style="stroke:#181818;stroke-width:1.0;" x1="128.5" x2="330.5" y1="668.9531" y2="668.9531"/><text fill="#000000" font-family="sans-serif" font-size="13" lengthAdjust="spacing" textLength="80" x="135.5" y="663.8872">draw(milieu)</text><!--SRC=[ZP9BJkD048RtFaKjRGGNo08fX6o000glOOKgTYaKjBkQxZ8ZpMdOSevSRDfn_8Xm93RkKdKzllzlE_JAEJkq2jEF2ZrNPU86oGKRfcelDKEF3dFQIvvHK1Qpdvn9wSGhbMJr4aj-nt-K99WhVw9Ilx0DuEHqjt02GScbML-y0p4Y3XRJYvVRcxkaoTLTBTC4AbV4ybi9m-OEkGtgdXRvG4-dg0ssUqOKJM1DUaxEnBbrFkKedOksxNY73aUbs2OSaerPD9Q4aptaGgfLH2h8AFuvRixdX6pHE7J_C5- -dCtlxWSUjSv6saTSIENPHxtzVJ-yriD1qUQKhiPBSZ660uizFEAHQKdr5AKq0u21aGEQbOZfk4TejIAVicRRcf_NM7H6Hn8hqLBFwrUTmDGvCfjlmFX15VPREo6ro27KqY0uiH7FRhufQsoRNTrSpyVr6h6_tL3NudeuFnlNZczIAMo-m214DxL-pz0j3VrpdY-dJwDOXSU_QRdxgMBvVm00]--></g></svg>